<svg xmlns="http://www.w3.org/2000/svg" viewBox="0 0 512 513"><g fill="none" transform="translate(0 1)"><circle cx="256" cy="256" r="256" fill="#D70026"/><path fill="#FFF" d="M372.057 117.56c-8.274-11.388-24.057-13.888-35.444-5.615L192.91 216.35l14.803-47.755c2.38-7.854 1.087-16.717-3.807-23.453-8.157-11.226-24.145-13.333-35.21-5.293-4.492 3.26-7.774 7.85-9.32 13.14l-37.37 121.24c-2.337 7.58-.956 15.88 3.705 22.3l83.67 115.15c3.38 4.65 9.62 6.49 14.93 4.35l69.74-28.13c12.13-4.89 23.49-11.18 33.91-18.76l34.81-25.29c8.5-6.18 11.42-18.35 5.01-27.17-6.17-8.5-18.08-10.39-26.58-4.21l-3.72-5.14 9.78-7.11c10.11-7.34 12.85-21.1 5.4-31.364-7.22-9.94-21.07-12.134-31.01-4.91l-10.263 7.46-3.73-5.13 14.43-10.484c11.546-8.39 15.08-24.434 6.574-36.14-8.276-11.387-24.06-13.887-35.446-5.61l-15.394 11.19-3.73-5.13 91.41-66.414c11.55-8.39 15.084-24.437 6.58-36.145zm20.528-14.916c16.663 22.935 10.585 55.04-12.19 71.587l-35.283 25.64c1.442 1.65 2.767 3.14 4.05 4.9 7.573 10.43 10.672 23.12 9.092 35.79 5.857 3.34 10.942 7.98 14.903 13.43 8.39 11.55 11.065 26.02 7.488 39.65 3.015 2.47 5.434 5.12 7.648 8.17 14.682 20.21 9.26 48.16-10.626 62.61l-34.803 25.28c-12.03 8.74-25.266 16.15-39.35 21.73l-69.74 28.13c-16.08 6.54-34.674 1.18-44.928-12.93l-83.664-115.16c-9.322-12.83-12.04-29.72-7.528-44.76l37.37-121.24c3.21-10.42 9.935-19.715 18.756-26.124 22.453-16.313 54.34-11.546 70.654 10.907 5.36 7.38 8.68 15.994 9.535 24.93l87.72-63.74c22.61-16.44 54.45-11.393 70.88 11.22zm-210.9 184.594l61.585-44.745-3.73-5.132-61.585 44.75 3.73 5.13zm29.83 41.058L273.1 283.55l-3.73-5.13-61.585 44.744 3.73 5.132zm29.83 41.058l61.585-44.745-3.73-5.14-61.585 44.74 3.73 5.13z"/></g></svg>